<svg xmlns="http://www.w3.org/2000/svg" viewBox="0 0 512 512">
  <!-- 52: 민트 + 도트 패턴 -->
  <defs>
    <linearGradient id="bg52" x1="0%" y1="0%" x2="100%" y2="100%">
      <stop offset="0%" stop-color="#a7f3d0"/>
      <stop offset="100%" stop-color="#d9fce8"/>
    </linearGradient>
    <linearGradient id="card52" x1="0%" y1="0%" x2="100%" y2="100%">
      <stop offset="0%" stop-color="#49e0ae"/>
      <stop offset="100%" stop-color="#27b88a"/>
    </linearGradient>
    <pattern id="dots52" width="32" height="32" patternUnits="userSpaceOnUse">
      <circle cx="16" cy="16" r="2" fill="#4ade80" opacity="0.3"/>
    </pattern>
  </defs>

  <path d="M256,0 C442.55,0 512,69.45 512,256 C512,442.55 442.55,512 256,512 C69.45,512 0,442.55 0,256 C0,69.45 69.45,0 256,0 Z" fill="url(#bg52)"/>
  <path d="M256,0 C442.55,0 512,69.45 512,256 C512,442.55 442.55,512 256,512 C69.45,512 0,442.55 0,256 C0,69.45 69.45,0 256,0 Z" fill="url(#dots52)"/>

  <rect x="80" y="160" width="160" height="224" rx="16" fill="#62ee95" opacity="0.5"/>
  <rect x="120" y="128" width="160" height="224" rx="16" fill="#4ade80" opacity="0.7"/>
  <rect x="265" y="96" width="160" height="224" rx="16" fill="url(#card52)"/>

  <circle cx="345" cy="208" r="36" fill="#fff" opacity="0.4"/>
  <polygon points="333,188 333,228 365,208" fill="#16a34a"/>
</svg>